<svg xmlns="http://www.w3.org/2000/svg" version="1.1" xmlns:xlink="http://www.w3.org/1999/xlink" xmlns:svgjs="http://svgjs.com/svgjs" width="64" height="64"><svg width="64" height="64" viewBox="0 0 64 64" fill="none" xmlns="http://www.w3.org/2000/svg">
<path d="M18.95 44.078C17.342 44.078 15.842 43.874 14.45 43.466C13.082 43.082 11.882 42.494 10.85 41.702C9.81797 40.934 9.01397 39.962 8.43797 38.786C7.86197 37.634 7.57397 36.29 7.57397 34.754C7.57397 34.202 7.62197 33.554 7.71797 32.81C7.81397 32.066 7.99397 31.226 8.25797 30.29C8.52197 29.33 8.91797 28.262 9.44597 27.086L13.874 28.634C13.61 29.378 13.382 30.062 13.19 30.686C12.998 31.286 12.854 31.85 12.758 32.378C12.662 32.882 12.614 33.386 12.614 33.89C12.614 34.85 12.866 35.714 13.37 36.482C13.898 37.274 14.642 37.898 15.602 38.354C16.586 38.81 17.75 39.038 19.094 39.038C20.39 39.038 21.506 38.906 22.442 38.642C23.378 38.378 24.146 37.982 24.746 37.454C25.37 36.95 25.826 36.326 26.114 35.582C26.402 34.814 26.546 33.938 26.546 32.954C26.546 31.922 26.354 30.71 25.97 29.318C25.586 27.926 25.154 26.39 24.674 24.71L29.714 23.414C29.954 24.326 30.146 25.118 30.29 25.79C30.458 26.438 30.59 26.978 30.686 27.41C30.806 27.818 30.914 28.142 31.01 28.382C31.202 28.886 31.478 29.318 31.838 29.678C32.198 30.014 32.726 30.302 33.422 30.542C34.142 30.758 35.102 30.926 36.302 31.046C37.502 31.142 39.05 31.19 40.946 31.19C42.53 31.19 43.898 31.142 45.05 31.046C46.226 30.926 47.21 30.77 48.002 30.578C48.818 30.362 49.466 30.11 49.946 29.822C50.45 29.534 50.81 29.21 51.026 28.85C51.266 28.466 51.386 28.058 51.386 27.626C51.386 27.194 51.278 26.774 51.062 26.366C50.87 25.958 50.546 25.622 50.09 25.358C49.634 25.094 49.046 24.962 48.326 24.962C47.39 24.962 46.454 25.19 45.518 25.646C44.582 26.102 43.67 26.702 42.782 27.446C41.918 28.166 41.114 28.934 40.37 29.75C39.65 30.566 39.014 31.334 38.462 32.054L33.314 31.442C34.01 30.314 34.79 29.198 35.654 28.094C36.542 26.966 37.49 25.91 38.498 24.926C39.506 23.942 40.562 23.078 41.666 22.334C42.794 21.59 43.958 21.002 45.158 20.57C46.358 20.138 47.57 19.922 48.794 19.922C50.402 19.922 51.77 20.246 52.898 20.894C54.026 21.518 54.89 22.382 55.49 23.486C56.114 24.59 56.426 25.85 56.426 27.266C56.426 28.586 56.15 29.798 55.598 30.902C55.07 31.982 54.206 32.93 53.006 33.746C51.83 34.538 50.282 35.15 48.362 35.582C46.442 36.014 44.114 36.23 41.378 36.23C40.01 36.23 38.666 36.146 37.346 35.978C36.05 35.834 34.862 35.606 33.782 35.294C32.702 34.982 31.79 34.598 31.046 34.142C30.302 33.662 29.798 33.11 29.534 32.486L31.55 33.602C31.478 35.234 31.13 36.698 30.506 37.994C29.882 39.29 29.018 40.382 27.914 41.27C26.834 42.182 25.538 42.878 24.026 43.358C22.514 43.838 20.822 44.078 18.95 44.078Z" fill="#374151"></path>
</svg><style>@media (prefers-color-scheme: light) { :root { filter: none; } }
@media (prefers-color-scheme: dark) { :root { filter: contrast(0.3846153846153846) brightness(4.5); } }
</style></svg>