<svg xmlns="http://www.w3.org/2000/svg" version="1.1" xmlns:xlink="http://www.w3.org/1999/xlink" xmlns:svgjs="http://svgjs.dev/svgjs" width="24" height="24"><svg width="24" height="24" viewBox="0 0 24 24" fill="none" xmlns="http://www.w3.org/2000/svg">
<g clip-path="url(#clip0_207_2509)">
<mask id="SvgjsMask1082" style="mask-type:luminance" maskUnits="userSpaceOnUse" x="0" y="0" width="24" height="24">
<path d="M18 0H6C2.68629 0 0 2.68629 0 6V18C0 21.3137 2.68629 24 6 24H18C21.3137 24 24 21.3137 24 18V6C24 2.68629 21.3137 0 18 0Z" fill="white"></path>
</mask>
<g mask="url(#mask0_207_2509)">
<path d="M18 0H6C2.68629 0 0 2.68629 0 6V18C0 21.3137 2.68629 24 6 24H18C21.3137 24 24 21.3137 24 18V6C24 2.68629 21.3137 0 18 0Z" fill="#18181B"></path>
<path d="M7.636 15.752C7.132 15.752 6.66 15.688 6.22 15.56C5.78 15.432 5.392 15.24 5.056 14.984C4.72 14.736 4.46 14.428 4.276 14.06C4.092 13.692 4 13.264 4 12.776C4 12.592 4.016 12.38 4.048 12.14C4.08 11.9 4.136 11.636 4.216 11.348C4.304 11.052 4.424 10.732 4.576 10.388L5.824 10.832C5.736 11.072 5.66 11.292 5.596 11.492C5.532 11.692 5.484 11.88 5.452 12.056C5.428 12.232 5.416 12.4 5.416 12.56C5.416 12.912 5.508 13.22 5.692 13.484C5.884 13.756 6.152 13.964 6.496 14.108C6.84 14.26 7.236 14.336 7.684 14.336C8.156 14.336 8.556 14.284 8.884 14.18C9.22 14.076 9.492 13.924 9.7 13.724C9.908 13.532 10.06 13.304 10.156 13.04C10.252 12.776 10.3 12.488 10.3 12.176C10.3 11.816 10.236 11.412 10.108 10.964C9.98798 10.516 9.852 10.028 9.7 9.5L11.116 9.128C11.196 9.432 11.26 9.688 11.308 9.896C11.364 10.104 11.408 10.276 11.44 10.412C11.472 10.54 11.504 10.644 11.536 10.724C11.608 10.908 11.712 11.064 11.848 11.192C11.984 11.312 12.176 11.412 12.424 11.492C12.672 11.572 12.992 11.632 13.384 11.672C13.784 11.704 14.284 11.72 14.884 11.72C15.372 11.72 15.8 11.7 16.168 11.66C16.544 11.62 16.868 11.564 17.14 11.492C17.412 11.42 17.632 11.332 17.8 11.228C17.976 11.116 18.104 10.992 18.184 10.856C18.272 10.72 18.316 10.568 18.316 10.4C18.316 10.24 18.276 10.088 18.196 9.944C18.124 9.792 18.004 9.668 17.836 9.572C17.676 9.468 17.464 9.416 17.2 9.416C16.856 9.416 16.516 9.504 16.18 9.68C15.844 9.848 15.52 10.064 15.208 10.328C14.904 10.592 14.624 10.868 14.368 11.156C14.12 11.444 13.908 11.704 13.732 11.936L12.268 11.792C12.484 11.44 12.732 11.084 13.012 10.724C13.3 10.356 13.608 10.008 13.936 9.68C14.272 9.352 14.624 9.064 14.992 8.816C15.36 8.568 15.74 8.372 16.132 8.228C16.524 8.076 16.92 8 17.32 8C17.824 8 18.252 8.1 18.604 8.3C18.956 8.5 19.228 8.772 19.42 9.116C19.612 9.46 19.708 9.852 19.708 10.292C19.708 10.7 19.624 11.076 19.456 11.42C19.288 11.764 19.016 12.064 18.64 12.32C18.264 12.576 17.768 12.776 17.152 12.92C16.536 13.064 15.784 13.136 14.896 13.136C14.376 13.136 13.9 13.104 13.468 13.04C13.036 12.984 12.656 12.9 12.328 12.788C12 12.676 11.732 12.544 11.524 12.392C11.316 12.24 11.18 12.072 11.116 11.888L11.716 12.344C11.692 12.832 11.588 13.28 11.404 13.688C11.228 14.104 10.972 14.464 10.636 14.768C10.3 15.08 9.884 15.32 9.388 15.488C8.892 15.664 8.308 15.752 7.636 15.752Z" fill="white"></path>
</g>
</g>
<defs>
<clipPath id="SvgjsClipPath1081">
<rect width="24" height="24" fill="white"></rect>
</clipPath>
</defs>
</svg><style>@media (prefers-color-scheme: light) { :root { filter: none; } }
@media (prefers-color-scheme: dark) { :root { filter: none; } }
</style></svg>